<svg xmlns="http://www.w3.org/2000/svg" xmlns:xlink="http://www.w3.org/1999/xlink" viewBox="0 0 1024 1024" width="1024" height="1024">
  <!-- ArcGIS Explorer app icon concept "C · Pulled layer". Three sheets from one server: blank paper, gridded paper, and the white front sheet lifted away with the layer highlighted. Extraction as a gesture.
       Geography: Great Britain, Ireland and the Isle of Man from Overture Maps (OSM, ODbL).
       Flat master: Apple's macOS squircle tile (824pt on a 1024pt canvas) is baked in.
       Generated by design/icon/build-icons.mjs; edit the script, not this file. -->
  <defs>
    <path id="squircle" d="M 924.0 512.0 L 923.9 619.7 L 923.6 654.0 L 923.1 679.0 L 922.4 699.2 L 921.5 716.5 L 920.4 731.8 L 919.1 745.5 L 917.5 758.1 L 915.8 769.6 L 913.9 780.2 L 911.7 790.2 L 909.4 799.5 L 906.8 808.2 L 904.0 816.5 L 901.0 824.2 L 897.7 831.6 L 894.2 838.5 L 890.5 845.1 L 886.6 851.3 L 882.3 857.2 L 877.9 862.8 L 873.1 868.1 L 868.1 873.1 L 862.8 877.9 L 857.2 882.3 L 851.3 886.6 L 845.1 890.5 L 838.5 894.2 L 831.6 897.7 L 824.2 901.0 L 816.5 904.0 L 808.2 906.8 L 799.5 909.4 L 790.2 911.7 L 780.2 913.9 L 769.6 915.8 L 758.1 917.5 L 745.5 919.1 L 731.8 920.4 L 716.5 921.5 L 699.2 922.4 L 679.0 923.1 L 654.0 923.6 L 619.7 923.9 L 512.0 924.0 L 404.3 923.9 L 370.0 923.6 L 345.0 923.1 L 324.8 922.4 L 307.5 921.5 L 292.2 920.4 L 278.5 919.1 L 265.9 917.5 L 254.4 915.8 L 243.8 913.9 L 233.8 911.7 L 224.5 909.4 L 215.8 906.8 L 207.5 904.0 L 199.8 901.0 L 192.4 897.7 L 185.5 894.2 L 178.9 890.5 L 172.7 886.6 L 166.8 882.3 L 161.2 877.9 L 155.9 873.1 L 150.9 868.1 L 146.1 862.8 L 141.7 857.2 L 137.4 851.3 L 133.5 845.1 L 129.8 838.5 L 126.3 831.6 L 123.0 824.2 L 120.0 816.5 L 117.2 808.2 L 114.6 799.5 L 112.3 790.2 L 110.1 780.2 L 108.2 769.6 L 106.5 758.1 L 104.9 745.5 L 103.6 731.8 L 102.5 716.5 L 101.6 699.2 L 100.9 679.0 L 100.4 654.0 L 100.1 619.7 L 100.0 512.0 L 100.1 404.3 L 100.4 370.0 L 100.9 345.0 L 101.6 324.8 L 102.5 307.5 L 103.6 292.2 L 104.9 278.5 L 106.5 265.9 L 108.2 254.4 L 110.1 243.8 L 112.3 233.8 L 114.6 224.5 L 117.2 215.8 L 120.0 207.5 L 123.0 199.8 L 126.3 192.4 L 129.8 185.5 L 133.5 178.9 L 137.4 172.7 L 141.7 166.8 L 146.1 161.2 L 150.9 155.9 L 155.9 150.9 L 161.2 146.1 L 166.8 141.7 L 172.7 137.4 L 178.9 133.5 L 185.5 129.8 L 192.4 126.3 L 199.8 123.0 L 207.5 120.0 L 215.8 117.2 L 224.5 114.6 L 233.8 112.3 L 243.8 110.1 L 254.4 108.2 L 265.9 106.5 L 278.5 104.9 L 292.2 103.6 L 307.5 102.5 L 324.8 101.6 L 345.0 100.9 L 370.0 100.4 L 404.3 100.1 L 512.0 100.0 L 619.7 100.1 L 654.0 100.4 L 679.0 100.9 L 699.2 101.6 L 716.5 102.5 L 731.8 103.6 L 745.5 104.9 L 758.1 106.5 L 769.6 108.2 L 780.2 110.1 L 790.2 112.3 L 799.5 114.6 L 808.2 117.2 L 816.5 120.0 L 824.2 123.0 L 831.6 126.3 L 838.5 129.8 L 845.1 133.5 L 851.3 137.4 L 857.2 141.7 L 862.8 146.1 L 868.1 150.9 L 873.1 155.9 L 877.9 161.2 L 882.3 166.8 L 886.6 172.7 L 890.5 178.9 L 894.2 185.5 L 897.7 192.4 L 901.0 199.8 L 904.0 207.5 L 906.8 215.8 L 909.4 224.5 L 911.7 233.8 L 913.9 243.8 L 915.8 254.4 L 917.5 265.9 L 919.1 278.5 L 920.4 292.2 L 921.5 307.5 L 922.4 324.8 L 923.1 345.0 L 923.6 370.0 L 923.9 404.3 Z"/>
    <clipPath id="tile"><use xlink:href="#squircle"/></clipPath>
    <filter id="soft" x="-20%" y="-20%" width="140%" height="140%"><feGaussianBlur stdDeviation="16"/></filter>
    <clipPath id="back"><rect x="168" y="356" width="480" height="560" rx="28"/></clipPath>
    <clipPath id="mid"><rect x="246" y="262" width="480" height="560" rx="28"/></clipPath>
    <clipPath id="front"><rect x="344" y="120" width="480" height="560" rx="28"/></clipPath>
  </defs>
  <g clip-path="url(#tile)">
    <rect width="1024" height="1024" fill="#EDEFE9"/>
    <rect x="168" y="378" width="480" height="560" rx="28" fill="#000" opacity="0.26" filter="url(#soft)"/>
    <g clip-path="url(#back)">
      <rect x="168" y="356" width="480" height="560" fill="#D9DED6"/>
      
    </g>
    <rect x="168" y="356" width="480" height="560" rx="28" fill="none" stroke="#BEC5BA" stroke-width="3"/>
    <rect x="246" y="284" width="480" height="560" rx="28" fill="#000" opacity="0.26" filter="url(#soft)"/>
    <g clip-path="url(#mid)">
      <rect x="246" y="262" width="480" height="560" fill="#EDEFEA"/>
      <path d="M294 262V822M390 262V822M486 262V822M582 262V822M678 262V822M246 310H726M246 406H726M246 502H726M246 598H726M246 694H726M246 790H726" stroke="rgba(34,42,38,0.09)" stroke-width="4" fill="none"/>
      
    </g>
    <rect x="246" y="262" width="480" height="560" rx="28" fill="none" stroke="#BEC5BA" stroke-width="3"/>
    <rect x="344" y="142" width="480" height="560" rx="28" fill="#000" opacity="0.26" filter="url(#soft)"/>
    <g clip-path="url(#front)">
      <rect x="344" y="120" width="480" height="560" fill="#FFFFFF"/>
      <rect x="344" y="120" width="480" height="560" fill="#DCE7F0"/>
      <path d="M534.7 265.0L540.8 276.5L544.6 276.0L547.7 258.8L554.7 254.1L557.7 242.8L562.0 239.5L567.5 225.9L585.9 229.0L610.9 224.0L613.7 216.8L608.5 209.8L608.9 204.0L615.1 204.0L620.8 209.9L621.4 214.3L616.5 223.7L614.5 235.9L598.0 250.2L597.9 263.2L601.1 266.7L608.9 264.0L616.7 266.5L641.8 265.2L646.3 269.1L647.2 275.4L641.7 283.2L636.7 300.2L625.3 317.2L626.1 334.8L638.6 341.9L650.9 356.2L660.2 391.8L664.3 396.8L677.5 403.3L687.4 417.6L687.8 427.7L694.9 438.9L701.8 466.9L724.1 469.7L734.0 478.7L735.4 489.6L731.2 505.4L722.4 517.6L716.6 520.9L712.8 529.8L715.0 537.1L726.1 536.8L726.3 546.1L718.1 550.4L715.1 556.0L698.2 563.7L685.9 560.2L667.8 562.3L660.0 570.7L649.9 564.7L645.4 565.5L642.6 570.1L631.0 571.5L621.8 564.7L611.5 566.6L606.3 571.0L604.6 579.8L600.5 586.1L582.0 580.1L574.7 582.5L564.9 595.2L561.1 596.0L557.2 586.7L566.9 572.3L577.0 562.8L579.3 552.9L584.3 551.0L586.9 544.5L596.9 542.5L600.1 537.6L595.9 527.0L586.9 529.4L583.2 522.3L579.2 521.0L568.8 526.8L561.2 520.6L561.2 513.0L585.0 500.0L589.8 492.8L589.6 478.1L587.3 472.3L577.1 474.0L580.8 463.1L578.1 450.6L582.9 448.6L588.3 453.0L601.4 454.3L611.4 451.0L615.9 439.4L615.9 426.3L602.5 403.2L603.3 391.2L601.3 386.9L592.7 390.8L586.3 389.8L581.8 394.6L574.5 389.2L568.8 394.3L563.7 386.9L563.2 381.9L574.0 361.4L573.9 356.7L570.5 351.6L566.2 352.7L564.2 361.7L556.9 360.5L550.6 367.8L548.5 364.6L551.0 348.8L549.0 342.7L544.6 343.7L542.1 351.4L536.0 355.8L530.7 351.2L531.3 344.7L542.4 339.2L545.0 333.8L543.8 326.5L536.0 326.1L534.3 323.2L534.6 312.2L537.5 306.2L542.1 304.0L543.5 299.1L539.4 288.8L534.3 287.7L524.2 278.4L523.8 274.7L534.7 265.0ZM432.6 501.0L442.8 495.6L445.4 485.1L454.9 476.3L458.0 463.8L456.3 458.1L438.9 448.0L439.0 443.0L445.1 435.3L444.3 423.2L440.3 417.7L441.4 411.8L448.3 409.1L473.6 412.0L478.0 403.6L475.0 392.3L480.4 386.6L485.4 375.0L508.7 364.8L521.8 373.6L530.8 370.3L540.8 372.5L556.2 402.3L554.5 410.2L547.3 413.9L537.1 427.9L536.9 437.5L540.5 444.1L542.1 468.9L533.9 492.4L532.8 501.5L506.9 504.3L502.5 510.3L479.3 525.9L448.9 533.2L444.8 527.2L440.1 526.6L437.7 519.7L433.9 517.8L432.6 501.0ZM506.2 268.9L513.9 263.1L515.0 244.4L535.4 230.6L537.8 232.0L538.2 242.9L530.5 254.8L515.8 265.8L512.3 276.0L511.0 290.0L508.2 290.3L506.2 268.9Z" fill="#D4DECB" stroke="#A2B297" stroke-width="5" stroke-linejoin="round" fill-rule="evenodd"/>
      <path d="M392 120V680M488 120V680M584 120V680M680 120V680M776 120V680M344 168H824M344 264H824M344 360H824M344 456H824M344 552H824M344 648H824" stroke="#CBD7E4" stroke-width="4" fill="none"/>
      <rect x="542.5" y="378.8" width="196.7" height="221.1" fill="rgba(184,35,107,0.10)" stroke="#B8236B" stroke-width="14" stroke-dasharray="40 26"/>
    </g>
    <rect x="344" y="120" width="480" height="560" rx="28" fill="none" stroke="#BEC5BA" stroke-width="3"/>
  </g>
</svg>
