<svg xmlns="http://www.w3.org/2000/svg" xmlns:xlink="http://www.w3.org/1999/xlink" viewBox="0 0 1024 1024" width="1024" height="1024">
  <!-- ArcGIS Explorer app icon "B · Folded map". A sheet folded in four on the desk.
       Flat master: Apple's macOS squircle tile (824pt on a 1024pt canvas) is baked in.
       Generated by design/icon/build-icons.mjs; edit the concepts module, not this file. -->
  <defs>
    <path id="squircle" d="M 924.0 512.0 L 923.9 619.7 L 923.6 654.0 L 923.1 679.0 L 922.4 699.2 L 921.5 716.5 L 920.4 731.8 L 919.1 745.5 L 917.5 758.1 L 915.8 769.6 L 913.9 780.2 L 911.7 790.2 L 909.4 799.5 L 906.8 808.2 L 904.0 816.5 L 901.0 824.2 L 897.7 831.6 L 894.2 838.5 L 890.5 845.1 L 886.6 851.3 L 882.3 857.2 L 877.9 862.8 L 873.1 868.1 L 868.1 873.1 L 862.8 877.9 L 857.2 882.3 L 851.3 886.6 L 845.1 890.5 L 838.5 894.2 L 831.6 897.7 L 824.2 901.0 L 816.5 904.0 L 808.2 906.8 L 799.5 909.4 L 790.2 911.7 L 780.2 913.9 L 769.6 915.8 L 758.1 917.5 L 745.5 919.1 L 731.8 920.4 L 716.5 921.5 L 699.2 922.4 L 679.0 923.1 L 654.0 923.6 L 619.7 923.9 L 512.0 924.0 L 404.3 923.9 L 370.0 923.6 L 345.0 923.1 L 324.8 922.4 L 307.5 921.5 L 292.2 920.4 L 278.5 919.1 L 265.9 917.5 L 254.4 915.8 L 243.8 913.9 L 233.8 911.7 L 224.5 909.4 L 215.8 906.8 L 207.5 904.0 L 199.8 901.0 L 192.4 897.7 L 185.5 894.2 L 178.9 890.5 L 172.7 886.6 L 166.8 882.3 L 161.2 877.9 L 155.9 873.1 L 150.9 868.1 L 146.1 862.8 L 141.7 857.2 L 137.4 851.3 L 133.5 845.1 L 129.8 838.5 L 126.3 831.6 L 123.0 824.2 L 120.0 816.5 L 117.2 808.2 L 114.6 799.5 L 112.3 790.2 L 110.1 780.2 L 108.2 769.6 L 106.5 758.1 L 104.9 745.5 L 103.6 731.8 L 102.5 716.5 L 101.6 699.2 L 100.9 679.0 L 100.4 654.0 L 100.1 619.7 L 100.0 512.0 L 100.1 404.3 L 100.4 370.0 L 100.9 345.0 L 101.6 324.8 L 102.5 307.5 L 103.6 292.2 L 104.9 278.5 L 106.5 265.9 L 108.2 254.4 L 110.1 243.8 L 112.3 233.8 L 114.6 224.5 L 117.2 215.8 L 120.0 207.5 L 123.0 199.8 L 126.3 192.4 L 129.8 185.5 L 133.5 178.9 L 137.4 172.7 L 141.7 166.8 L 146.1 161.2 L 150.9 155.9 L 155.9 150.9 L 161.2 146.1 L 166.8 141.7 L 172.7 137.4 L 178.9 133.5 L 185.5 129.8 L 192.4 126.3 L 199.8 123.0 L 207.5 120.0 L 215.8 117.2 L 224.5 114.6 L 233.8 112.3 L 243.8 110.1 L 254.4 108.2 L 265.9 106.5 L 278.5 104.9 L 292.2 103.6 L 307.5 102.5 L 324.8 101.6 L 345.0 100.9 L 370.0 100.4 L 404.3 100.1 L 512.0 100.0 L 619.7 100.1 L 654.0 100.4 L 679.0 100.9 L 699.2 101.6 L 716.5 102.5 L 731.8 103.6 L 745.5 104.9 L 758.1 106.5 L 769.6 108.2 L 780.2 110.1 L 790.2 112.3 L 799.5 114.6 L 808.2 117.2 L 816.5 120.0 L 824.2 123.0 L 831.6 126.3 L 838.5 129.8 L 845.1 133.5 L 851.3 137.4 L 857.2 141.7 L 862.8 146.1 L 868.1 150.9 L 873.1 155.9 L 877.9 161.2 L 882.3 166.8 L 886.6 172.7 L 890.5 178.9 L 894.2 185.5 L 897.7 192.4 L 901.0 199.8 L 904.0 207.5 L 906.8 215.8 L 909.4 224.5 L 911.7 233.8 L 913.9 243.8 L 915.8 254.4 L 917.5 265.9 L 919.1 278.5 L 920.4 292.2 L 921.5 307.5 L 922.4 324.8 L 923.1 345.0 L 923.6 370.0 L 923.9 404.3 Z"/>
    <clipPath id="tile"><use xlink:href="#squircle"/></clipPath>
    <linearGradient id="ground" x1="0" y1="0" x2="0" y2="1"><stop offset="0" stop-color="#A3ACA2"/><stop offset="1" stop-color="#98A197"/></linearGradient>
  </defs>
  <g clip-path="url(#tile)">
    <rect x="0" y="0" width="1024" height="1024" fill="url(#ground)"/>
<g id="layer-sheet"><path d="M156.0 246.0L334.0 182.0L512.0 246.0L690.0 182.0L868.0 246.0L868.0 842.0L690.0 778.0L512.0 842.0L334.0 778.0L156.0 842.0Z" fill="#F6F7F3"/></g>
<g id="layer-land"><path d="M446.4 332.4L454.6 347.8L459.6 347.1L463.8 324.3L473.1 317.9L477.0 303.0L482.7 298.6L490.1 280.4L514.5 284.5L547.8 277.9L551.5 268.4L544.6 259.1L545.2 251.4L553.3 251.3L561.0 259.2L561.8 265.0L555.2 277.6L552.6 293.7L530.7 312.8L530.4 330.1L534.8 334.7L545.1 331.1L555.5 334.4L588.8 332.8L594.8 337.9L596.1 346.3L588.7 356.6L582.1 379.2L566.9 401.9L568.0 425.2L584.6 434.7L601.0 453.7L613.3 501.1L618.8 507.8L636.4 516.3L649.5 535.4L650.1 548.9L659.5 563.8L668.7 601.0L698.3 604.7L711.6 616.7L713.4 631.1L707.7 652.2L696.1 668.4L688.3 672.7L683.3 684.6L686.3 694.3L701.0 694.0L701.3 706.4L690.4 712.0L686.4 719.5L663.9 729.8L647.5 725.0L623.5 727.8L613.0 739.1L599.6 731.1L593.6 732.2L589.9 738.2L574.5 740.0L562.3 731.0L548.5 733.5L541.7 739.5L539.4 751.1L533.9 759.5L509.3 751.6L499.6 754.8L486.6 771.6L481.5 772.7L476.4 760.3L489.3 741.1L502.6 728.5L505.7 715.3L512.4 712.9L515.9 704.1L529.1 701.5L533.5 695.0L527.8 680.9L515.8 684.2L511.0 674.7L505.6 672.9L491.8 680.7L481.6 672.4L481.7 662.4L513.3 645.0L519.7 635.5L519.5 615.9L516.4 608.1L502.8 610.4L507.8 595.9L504.2 579.3L510.6 576.7L517.7 582.5L535.2 584.2L548.4 579.9L554.5 564.4L554.4 547.0L536.6 516.3L537.6 500.3L535.0 494.6L523.6 499.8L515.0 498.5L509.1 504.8L499.3 497.6L491.8 504.4L485.1 494.6L484.3 487.9L498.7 460.7L498.5 454.4L494.0 447.6L488.3 449.1L485.7 461.0L475.9 459.5L467.6 469.2L464.7 464.9L468.1 444.0L465.4 435.8L459.6 437.1L456.2 447.4L448.2 453.3L441.1 447.0L441.9 438.4L456.7 431.2L460.1 424.0L458.5 414.3L448.2 413.8L445.8 409.9L446.3 395.3L450.1 387.2L456.3 384.4L458.1 377.8L452.7 364.1L446.0 362.7L432.4 350.3L431.9 345.4ZM310.6 646.3L324.2 639.1L327.7 625.1L340.3 613.4L344.4 596.8L342.1 589.3L319.0 575.8L319.2 569.1L327.3 558.9L326.2 542.9L320.8 535.6L322.3 527.7L331.5 524.1L365.2 527.9L371.0 516.8L367.0 501.8L374.2 494.2L380.8 478.8L411.9 465.2L429.3 476.8L441.2 472.5L454.5 475.5L475.0 515.1L472.8 525.6L463.2 530.5L449.6 549.1L449.4 561.9L454.1 570.6L456.3 603.6L445.4 634.8L443.9 647.0L409.4 650.7L403.6 658.8L372.7 679.5L332.3 689.1L326.8 681.1L320.6 680.4L317.4 671.3L312.3 668.6Z" fill="#116C7E"/></g>
<g id="layer-extent"><path d="M423.64733482541357 475.25538472110594H635.5326411140072V675.0734105257693H423.64733482541357ZM463.64733482541357 515.2553847211059V635.0734105257693H595.5326411140072V515.2553847211059Z" fill="#232F3A"/></g>
<g id="layer-shade"><path d="M334.0 182.0L512.0 246.0L512.0 842.0L334.0 778.0ZM690.0 182.0L868.0 246.0L868.0 842.0L690.0 778.0Z" fill="#232F3A" fill-opacity="0.16"/></g>
  </g>
</svg>
