<svg xmlns="http://www.w3.org/2000/svg" xmlns:xlink="http://www.w3.org/1999/xlink" viewBox="0 0 1024 1024" width="1024" height="1024">
  <!-- ArcGIS Explorer app icon "A · Survey sheet". The tile is the map sheet itself.
       Flat master: Apple's macOS squircle tile (824pt on a 1024pt canvas) is baked in.
       Generated by design/icon/build-icons.mjs; edit the concepts module, not this file. -->
  <defs>
    <path id="squircle" d="M 924.0 512.0 L 923.9 619.7 L 923.6 654.0 L 923.1 679.0 L 922.4 699.2 L 921.5 716.5 L 920.4 731.8 L 919.1 745.5 L 917.5 758.1 L 915.8 769.6 L 913.9 780.2 L 911.7 790.2 L 909.4 799.5 L 906.8 808.2 L 904.0 816.5 L 901.0 824.2 L 897.7 831.6 L 894.2 838.5 L 890.5 845.1 L 886.6 851.3 L 882.3 857.2 L 877.9 862.8 L 873.1 868.1 L 868.1 873.1 L 862.8 877.9 L 857.2 882.3 L 851.3 886.6 L 845.1 890.5 L 838.5 894.2 L 831.6 897.7 L 824.2 901.0 L 816.5 904.0 L 808.2 906.8 L 799.5 909.4 L 790.2 911.7 L 780.2 913.9 L 769.6 915.8 L 758.1 917.5 L 745.5 919.1 L 731.8 920.4 L 716.5 921.5 L 699.2 922.4 L 679.0 923.1 L 654.0 923.6 L 619.7 923.9 L 512.0 924.0 L 404.3 923.9 L 370.0 923.6 L 345.0 923.1 L 324.8 922.4 L 307.5 921.5 L 292.2 920.4 L 278.5 919.1 L 265.9 917.5 L 254.4 915.8 L 243.8 913.9 L 233.8 911.7 L 224.5 909.4 L 215.8 906.8 L 207.5 904.0 L 199.8 901.0 L 192.4 897.7 L 185.5 894.2 L 178.9 890.5 L 172.7 886.6 L 166.8 882.3 L 161.2 877.9 L 155.9 873.1 L 150.9 868.1 L 146.1 862.8 L 141.7 857.2 L 137.4 851.3 L 133.5 845.1 L 129.8 838.5 L 126.3 831.6 L 123.0 824.2 L 120.0 816.5 L 117.2 808.2 L 114.6 799.5 L 112.3 790.2 L 110.1 780.2 L 108.2 769.6 L 106.5 758.1 L 104.9 745.5 L 103.6 731.8 L 102.5 716.5 L 101.6 699.2 L 100.9 679.0 L 100.4 654.0 L 100.1 619.7 L 100.0 512.0 L 100.1 404.3 L 100.4 370.0 L 100.9 345.0 L 101.6 324.8 L 102.5 307.5 L 103.6 292.2 L 104.9 278.5 L 106.5 265.9 L 108.2 254.4 L 110.1 243.8 L 112.3 233.8 L 114.6 224.5 L 117.2 215.8 L 120.0 207.5 L 123.0 199.8 L 126.3 192.4 L 129.8 185.5 L 133.5 178.9 L 137.4 172.7 L 141.7 166.8 L 146.1 161.2 L 150.9 155.9 L 155.9 150.9 L 161.2 146.1 L 166.8 141.7 L 172.7 137.4 L 178.9 133.5 L 185.5 129.8 L 192.4 126.3 L 199.8 123.0 L 207.5 120.0 L 215.8 117.2 L 224.5 114.6 L 233.8 112.3 L 243.8 110.1 L 254.4 108.2 L 265.9 106.5 L 278.5 104.9 L 292.2 103.6 L 307.5 102.5 L 324.8 101.6 L 345.0 100.9 L 370.0 100.4 L 404.3 100.1 L 512.0 100.0 L 619.7 100.1 L 654.0 100.4 L 679.0 100.9 L 699.2 101.6 L 716.5 102.5 L 731.8 103.6 L 745.5 104.9 L 758.1 106.5 L 769.6 108.2 L 780.2 110.1 L 790.2 112.3 L 799.5 114.6 L 808.2 117.2 L 816.5 120.0 L 824.2 123.0 L 831.6 126.3 L 838.5 129.8 L 845.1 133.5 L 851.3 137.4 L 857.2 141.7 L 862.8 146.1 L 868.1 150.9 L 873.1 155.9 L 877.9 161.2 L 882.3 166.8 L 886.6 172.7 L 890.5 178.9 L 894.2 185.5 L 897.7 192.4 L 901.0 199.8 L 904.0 207.5 L 906.8 215.8 L 909.4 224.5 L 911.7 233.8 L 913.9 243.8 L 915.8 254.4 L 917.5 265.9 L 919.1 278.5 L 920.4 292.2 L 921.5 307.5 L 922.4 324.8 L 923.1 345.0 L 923.6 370.0 L 923.9 404.3 Z"/>
    <clipPath id="tile"><use xlink:href="#squircle"/></clipPath>
    <linearGradient id="ground" x1="0" y1="0" x2="0" y2="1"><stop offset="0" stop-color="#F6F7F3"/><stop offset="1" stop-color="#EAEDE6"/></linearGradient>
  </defs>
  <g clip-path="url(#tile)">
    <rect x="0" y="0" width="1024" height="1024" fill="url(#ground)"/>
<g id="layer-sea"><path d="M176 176h672v672h-672Z" fill="#DCE6EE"/></g>
<g id="layer-land"><path d="M432.5 294.4L442.4 313.1L448.5 312.2L453.6 284.5L464.8 276.8L469.6 258.8L476.5 253.4L485.5 231.4L515.1 236.4L555.4 228.4L559.8 216.8L551.5 205.5L552.2 196.2L562.1 196.2L571.4 205.7L572.3 212.7L564.4 228.0L561.2 247.5L534.6 270.7L534.3 291.6L539.6 297.1L552.1 292.8L564.7 296.8L605.1 294.9L612.3 301.0L613.9 311.2L605.0 323.7L596.9 351.1L578.6 378.6L579.8 406.9L599.9 418.3L619.9 441.4L634.7 498.8L641.4 506.9L662.7 517.3L678.6 540.4L679.3 556.7L690.7 574.7L701.9 619.8L737.8 624.3L753.8 638.8L756.0 656.4L749.1 681.9L735.1 701.5L725.6 706.7L719.5 721.2L723.1 732.8L741.0 732.5L741.3 747.5L728.1 754.4L723.2 763.4L696.0 775.8L676.2 770.1L647.1 773.5L634.4 787.1L618.2 777.4L610.9 778.8L606.4 786.1L587.7 788.3L573.0 777.3L556.3 780.4L548.0 787.6L545.2 801.7L538.5 811.9L508.7 802.2L496.9 806.1L481.2 826.5L475.0 827.8L468.8 812.9L484.5 789.6L500.7 774.3L504.4 758.3L512.5 755.4L516.7 744.8L532.8 741.6L538.0 733.7L531.1 716.7L516.6 720.6L510.8 709.2L504.3 706.9L487.5 716.4L475.2 706.4L475.3 694.2L513.5 673.1L521.4 661.6L521.1 637.9L517.3 628.4L500.9 631.3L506.9 613.7L502.5 593.6L510.3 590.4L518.9 597.4L540.0 599.5L556.2 594.2L563.5 575.5L563.4 554.5L541.8 517.2L543.1 497.8L539.9 490.9L526.0 497.2L515.7 495.6L508.5 503.3L496.7 494.5L487.5 502.8L479.4 490.9L478.4 482.8L495.9 449.8L495.7 442.2L490.2 433.9L483.3 435.8L480.2 450.2L468.3 448.4L458.2 460.1L454.7 454.9L458.8 429.6L455.5 419.7L448.5 421.3L444.4 433.7L434.7 440.8L426.1 433.3L427.1 422.9L445.0 414.1L449.1 405.3L447.2 393.6L434.7 393.0L431.8 388.3L432.4 370.5L437.0 360.8L444.5 357.4L446.7 349.4L440.1 332.9L432.0 331.1L415.6 316.1L414.9 310.2ZM268.0 674.7L284.4 666.0L288.7 649.1L303.9 634.9L308.9 614.8L306.1 605.6L278.1 589.3L278.4 581.2L288.2 568.8L286.9 549.4L280.4 540.6L282.2 531.1L293.3 526.6L334.1 531.3L341.1 517.8L336.3 499.6L345.1 490.4L353.0 471.8L390.7 455.3L411.8 469.4L426.2 464.1L442.3 467.7L467.1 515.7L464.4 528.5L452.9 534.4L436.4 557.0L436.1 572.5L441.9 583.0L444.5 623.0L431.3 660.8L429.4 675.6L387.7 680.0L380.7 689.8L343.3 714.9L294.3 726.6L287.6 716.9L280.1 716.1L276.2 705.0L270.1 701.8Z" fill="#116C7E"/></g>
<g id="layer-extent"><path d="M404.9518729141423 467.4802083409319H661.6722010489798V709.5798142567861H404.9518729141423ZM448.9518729141423 511.4802083409319V665.5798142567861H617.6722010489798V511.4802083409319Z" fill="#232F3A"/></g>
<g id="layer-neatline"><path d="M148 148H876V876H148ZM178 178V846H846V178Z" fill="#232F3A"/></g>
  </g>
</svg>
